<svg width="28" height="27" viewBox="0 0 28 27" fill="none" xmlns="http://www.w3.org/2000/svg">
<g filter="url(#filter0_d_81_222)">
<path d="M4 5.995C4 5.445 4.446 5 4.995 5H13.005C13.2689 5 13.522 5.10483 13.7086 5.29143C13.8952 5.47803 14 5.73111 14 5.995C14 6.25889 13.8952 6.51197 13.7086 6.69857C13.522 6.88517 13.2689 6.99 13.005 6.99H4.995C4.73111 6.99 4.47803 6.88517 4.29143 6.69857C4.10483 6.51197 4 6.25889 4 5.995ZM4 12C4 11.45 4.446 11.005 4.995 11.005H23.005C23.2689 11.005 23.522 11.1098 23.7086 11.2964C23.8952 11.483 24 11.7361 24 12C24 12.2639 23.8952 12.517 23.7086 12.7036C23.522 12.8902 23.2689 12.995 23.005 12.995H4.995C4.73111 12.995 4.47803 12.8902 4.29143 12.7036C4.10483 12.517 4 12.2639 4 12ZM4.995 17.01C4.73111 17.01 4.47803 17.1148 4.29143 17.3014C4.10483 17.488 4 17.7411 4 18.005C4 18.2689 4.10483 18.522 4.29143 18.7086C4.47803 18.8952 4.73111 19 4.995 19H17.005C17.2689 19 17.522 18.8952 17.7086 18.7086C17.8952 18.522 18 18.2689 18 18.005C18 17.7411 17.8952 17.488 17.7086 17.3014C17.522 17.1148 17.2689 17.01 17.005 17.01H4.995Z" fill="#AE1332"/>
</g>
<defs>
<filter id="filter0_d_81_222" x="-2" y="0" width="32" height="32" filterUnits="userSpaceOnUse" color-interpolation-filters="sRGB">
<feFlood flood-opacity="0" result="BackgroundImageFix"/>
<feColorMatrix in="SourceAlpha" type="matrix" values="0 0 0 0 0 0 0 0 0 0 0 0 0 0 0 0 0 0 127 0" result="hardAlpha"/>
<feOffset dy="4"/>
<feGaussianBlur stdDeviation="2"/>
<feComposite in2="hardAlpha" operator="out"/>
<feColorMatrix type="matrix" values="0 0 0 0 0 0 0 0 0 0 0 0 0 0 0 0 0 0 0.25 0"/>
<feBlend mode="normal" in2="BackgroundImageFix" result="effect1_dropShadow_81_222"/>
<feBlend mode="normal" in="SourceGraphic" in2="effect1_dropShadow_81_222" result="shape"/>
</filter>
</defs>
</svg>
